# xmcd CD database file
#
# Track frame offsets:
#	150
#	19057
#	41380
#	62077
#	79980
#	98505
#	117682
#	141047
#	159777
#	179257
#
# Disc length: 2640 seconds
#
# Revision: 0
# Processed by: cddbd v1.5PL3 Copyright (c) Steve Scherf et al.
# Submitted via: CDex 1.51
#
DISCID=780a4e0a
DTITLE=水野愛日 - GIRLY CHIC
DYEAR=1900
DGENRE=J-Pop
TTITLE0=fight girl FIGHT
TTITLE1=恋愛GoGo!
TTITLE2=日曜日はダメダメよ
TTITLE3=Beauty Lesson
TTITLE4=Dancin' in the light
TTITLE5=キミが教えてくれたこと
TTITLE6=Still...〜ちぎれそうな同窓会〜
TTITLE7=結婚したい狂奏曲
TTITLE8=東京カーニバル
TTITLE9=summer again
EXTD=
EXTT0=
EXTT1=
EXTT2=
EXTT3=
EXTT4=
EXTT5=
EXTT6=
EXTT7=
EXTT8=
EXTT9=
PLAYORDER=
